<svg width="54" height="32" viewBox="0 0 54 32" fill="none" xmlns="http://www.w3.org/2000/svg">
<g clip-path="url(#clip0_32_245)">
<path d="M23.0306 0.000217438C23.0306 0.740217 23.0893 1.36022 23.004 1.95889C22.968 2.21355 22.6706 2.48688 22.4266 2.64022C21.244 3.39088 19.96 3.99088 18.8573 4.85222C15.2893 7.64155 13.1746 11.3136 13.0586 16.0842C13.0266 17.4376 13.5253 17.7776 14.6613 17.2482C17.9453 15.7256 21.4773 16.6189 23.3613 19.4482C25.416 22.5362 25.1266 26.6482 22.664 29.3442C19.52 32.7869 14.344 32.8909 10.7746 29.6002C8.6373 27.6296 7.6213 25.0856 7.36796 22.1909C6.51863 12.4962 11.3813 4.50422 20.2333 0.993553C21.1093 0.646885 22.0066 0.361551 23.0306 0.000217438Z" fill="#121212"/>
</g>
<g clip-path="url(#clip1_32_245)">
<path d="M45.0306 0.000217438C45.0306 0.740217 45.0893 1.36022 45.004 1.95889C44.968 2.21355 44.6706 2.48688 44.4266 2.64022C43.244 3.39088 41.96 3.99088 40.8573 4.85222C37.2893 7.64155 35.1746 11.3136 35.0586 16.0842C35.0266 17.4376 35.5253 17.7776 36.6613 17.2482C39.9453 15.7256 43.4773 16.6189 45.3613 19.4482C47.416 22.5362 47.1266 26.6482 44.664 29.3442C41.52 32.7869 36.344 32.8909 32.7746 29.6002C30.6373 27.6296 29.6213 25.0856 29.368 22.1909C28.5186 12.4962 33.3813 4.50422 42.2333 0.993553C43.1093 0.646885 44.0066 0.361551 45.0306 0.000217438Z" fill="#121212"/>
</g>
<defs>
<clipPath id="clip0_32_245">
<rect width="32" height="32" fill="white" transform="matrix(-1 0 0 -1 32 32)"/>
</clipPath>
<clipPath id="clip1_32_245">
<rect width="32" height="32" fill="white" transform="matrix(-1 0 0 -1 54 32)"/>
</clipPath>
</defs>
</svg>
