<svg width="40" height="40" viewBox="0 0 40 40" fill="none" xmlns="http://www.w3.org/2000/svg">
<rect x="0.5" y="0.5" width="39" height="39" rx="7.5" stroke="black" stroke-opacity="0.2"/>
<path d="M12 17C11.4696 17 10.9609 17.2107 10.5858 17.5858C10.2107 17.9609 10 18.4696 10 19V21C10 21.5304 10.2107 22.0391 10.5858 22.4142C10.9609 22.7893 11.4696 23 12 23H16C16.2652 23 16.5196 23.1054 16.7071 23.2929C16.8946 23.4804 17 23.7348 17 24V28C17 28.5304 17.2107 29.0391 17.5858 29.4142C17.9609 29.7893 18.4696 30 19 30H21C21.5304 30 22.0391 29.7893 22.4142 29.4142C22.7893 29.0391 23 28.5304 23 28V24C23 23.7348 23.1054 23.4804 23.2929 23.2929C23.4804 23.1054 23.7348 23 24 23H28C28.5304 23 29.0391 22.7893 29.4142 22.4142C29.7893 22.0391 30 21.5304 30 21V19C30 18.4696 29.7893 17.9609 29.4142 17.5858C29.0391 17.2107 28.5304 17 28 17H24C23.7348 17 23.4804 16.8946 23.2929 16.7071C23.1054 16.5196 23 16.2652 23 16V12C23 11.4696 22.7893 10.9609 22.4142 10.5858C22.0391 10.2107 21.5304 10 21 10H19C18.4696 10 17.9609 10.2107 17.5858 10.5858C17.2107 10.9609 17 11.4696 17 12V16C17 16.2652 16.8946 16.5196 16.7071 16.7071C16.5196 16.8946 16.2652 17 16 17H12Z" stroke="#121212" stroke-width="2" stroke-linecap="round" stroke-linejoin="round"/>
</svg>
